<svg width="317" height="63" viewBox="0 0 317 63" fill="none" xmlns="http://www.w3.org/2000/svg">
<path d="M47.06 13.9902H48.81L54.21 22.0502H54.24V13.9902H55.57V23.8002H53.88L48.42 15.7302H48.39V23.8002H47.06V13.9902Z" fill="white"/>
<path d="M67.12 22.8005C67.68 22.8005 68.19 22.7005 68.64 22.4905C69.09 22.2805 69.48 22.0005 69.8 21.6505C70.12 21.3005 70.37 20.8905 70.55 20.4105C70.73 19.9305 70.81 19.4305 70.81 18.8905C70.81 18.3505 70.72 17.8505 70.55 17.3705C70.37 16.8905 70.13 16.4805 69.8 16.1305C69.48 15.7805 69.09 15.5005 68.64 15.2905C68.19 15.0805 67.68 14.9805 67.12 14.9805C66.56 14.9805 66.05 15.0805 65.6 15.2905C65.15 15.5005 64.76 15.7805 64.44 16.1305C64.12 16.4805 63.87 16.8905 63.69 17.3705C63.51 17.8505 63.43 18.3505 63.43 18.8905C63.43 19.4305 63.52 19.9305 63.69 20.4105C63.87 20.8905 64.11 21.3005 64.44 21.6505C64.76 22.0005 65.15 22.2805 65.6 22.4905C66.05 22.7005 66.56 22.8005 67.12 22.8005ZM67.12 24.0505C66.37 24.0505 65.68 23.9205 65.06 23.6605C64.43 23.4005 63.89 23.0305 63.45 22.5705C63 22.1105 62.65 21.5605 62.4 20.9305C62.15 20.3005 62.02 19.6205 62.02 18.8905C62.02 18.1605 62.15 17.4805 62.4 16.8505C62.65 16.2205 63 15.6805 63.45 15.2105C63.9 14.7505 64.44 14.3905 65.06 14.1205C65.69 13.8605 66.38 13.7305 67.12 13.7305C67.87 13.7305 68.56 13.8605 69.18 14.1205C69.81 14.3805 70.35 14.7505 70.79 15.2105C71.24 15.6705 71.59 16.2205 71.84 16.8505C72.09 17.4805 72.22 18.1605 72.22 18.8905C72.22 19.6205 72.09 20.3005 71.84 20.9305C71.59 21.5605 71.23 22.1005 70.79 22.5705C70.34 23.0305 69.8 23.4005 69.18 23.6605C68.56 23.9205 67.87 24.0505 67.12 24.0505Z" fill="white"/>
<path d="M80.73 15.2302H77.57V13.9902H85.22V15.2302H82.06V23.8002H80.73V15.2302Z" fill="white"/>
<path d="M94.03 11.4404H95.8L93.74 13.4404H92.59L94.03 11.4404ZM95.34 20.2104L93.51 15.7104H93.48L91.62 20.2104H95.34ZM92.96 13.9904H94.17L98.37 23.8004H96.82L95.84 21.3704H91.17L90.2 23.8004H88.65L92.96 13.9904Z" fill="white"/>
<path d="M105.5 18.3102H107.25C107.51 18.3102 107.76 18.2902 108.02 18.2502C108.27 18.2102 108.5 18.1302 108.7 18.0202C108.9 17.9102 109.06 17.7502 109.18 17.5402C109.3 17.3302 109.36 17.0602 109.36 16.7302C109.36 16.4002 109.3 16.1302 109.18 15.9202C109.06 15.7102 108.9 15.5502 108.7 15.4402C108.5 15.3302 108.27 15.2502 108.02 15.2102C107.77 15.1702 107.51 15.1502 107.25 15.1502H105.5V18.3102ZM104.17 13.9902H107.62C108.25 13.9902 108.77 14.0802 109.17 14.2502C109.58 14.4202 109.9 14.6402 110.13 14.9002C110.37 15.1602 110.53 15.4602 110.62 15.7902C110.71 16.1202 110.76 16.4302 110.76 16.7402C110.76 17.0502 110.7 17.3602 110.59 17.6502C110.48 17.9402 110.32 18.2002 110.11 18.4402C109.9 18.6802 109.65 18.8702 109.35 19.0402C109.05 19.2002 108.71 19.3002 108.35 19.3402L111.14 23.8202H109.48L106.99 19.5002H105.51V23.8202H104.18V13.9902H104.17Z" fill="white"/>
<path d="M117.45 21.7502C117.69 22.1102 118 22.3802 118.37 22.5502C118.74 22.7202 119.13 22.8102 119.53 22.8102C119.75 22.8102 119.98 22.7802 120.21 22.7102C120.44 22.6402 120.65 22.5402 120.84 22.4002C121.03 22.2602 121.18 22.0902 121.3 21.8902C121.42 21.6902 121.48 21.4502 121.48 21.1802C121.48 20.8002 121.36 20.5102 121.12 20.3102C120.88 20.1102 120.58 19.9402 120.23 19.8102C119.87 19.6802 119.49 19.5502 119.07 19.4202C118.65 19.2902 118.26 19.1202 117.91 18.9002C117.55 18.6802 117.26 18.3802 117.02 18.0102C116.78 17.6402 116.66 17.1302 116.66 16.4902C116.66 16.2002 116.72 15.9002 116.85 15.5702C116.97 15.2502 117.17 14.9502 117.44 14.6802C117.71 14.4102 118.05 14.1902 118.47 14.0102C118.89 13.8302 119.4 13.7402 119.99 13.7402C120.53 13.7402 121.04 13.8102 121.53 13.9602C122.02 14.1102 122.45 14.4102 122.82 14.8602L121.74 15.8402C121.57 15.5802 121.34 15.3702 121.03 15.2202C120.72 15.0602 120.38 14.9802 119.99 14.9802C119.62 14.9802 119.31 15.0302 119.07 15.1302C118.83 15.2302 118.63 15.3502 118.48 15.5002C118.33 15.6502 118.23 15.8202 118.17 15.9902C118.11 16.1702 118.08 16.3302 118.08 16.4802C118.08 16.9002 118.2 17.2102 118.44 17.4402C118.68 17.6602 118.98 17.8402 119.33 17.9802C119.69 18.1202 120.07 18.2402 120.49 18.3502C120.91 18.4602 121.3 18.6202 121.65 18.8102C122.01 19.0102 122.3 19.2802 122.54 19.6102C122.78 19.9502 122.9 20.4102 122.9 21.0002C122.9 21.4702 122.81 21.9002 122.63 22.2802C122.45 22.6602 122.21 22.9802 121.9 23.2402C121.59 23.5002 121.23 23.7002 120.82 23.8402C120.4 23.9802 119.96 24.0502 119.49 24.0502C118.86 24.0502 118.27 23.9402 117.7 23.7202C117.14 23.5002 116.69 23.1602 116.36 22.6902L117.45 21.7502Z" fill="white"/>
<path d="M129.39 13.9902H130.72V18.2302H130.83L135.17 13.9902H137.03L132.29 18.5202L137.34 23.8002H135.4L130.83 18.8902H130.72V23.8002H129.39V13.9902Z" fill="white"/>
<path d="M145.21 19.6102L141.5 13.9902H143.2L145.88 18.3002L148.63 13.9902H150.26L146.54 19.6102V23.8002H145.21V19.6102Z" fill="white"/>
<path d="M168.43 11.4404H170.2L168.13 13.4404H166.98L168.43 11.4404ZM165.43 13.9904V20.0004C165.43 20.3004 165.47 20.6204 165.56 20.9504C165.64 21.2804 165.78 21.5804 165.98 21.8604C166.17 22.1404 166.43 22.3604 166.74 22.5404C167.05 22.7204 167.44 22.8004 167.9 22.8004C168.36 22.8004 168.75 22.7104 169.06 22.5404C169.38 22.3604 169.63 22.1404 169.82 21.8604C170.01 21.5804 170.15 21.2804 170.24 20.9504C170.32 20.6204 170.37 20.3104 170.37 20.0004V13.9904H171.7V20.2104C171.7 20.7804 171.6 21.3004 171.41 21.7704C171.22 22.2404 170.95 22.6404 170.61 22.9804C170.27 23.3204 169.87 23.5804 169.4 23.7704C168.94 23.9504 168.44 24.0504 167.9 24.0504C167.37 24.0504 166.87 23.9604 166.4 23.7704C165.94 23.5904 165.54 23.3204 165.19 22.9804C164.85 22.6404 164.58 22.2304 164.39 21.7704C164.2 21.3004 164.1 20.7804 164.1 20.2104V13.9904H165.43Z" fill="white"/>
<path d="M179.89 18.3102H181.64C181.9 18.3102 182.16 18.2902 182.41 18.2502C182.66 18.2102 182.89 18.1302 183.09 18.0202C183.29 17.9102 183.45 17.7502 183.57 17.5402C183.69 17.3302 183.75 17.0602 183.75 16.7302C183.75 16.4002 183.69 16.1302 183.57 15.9202C183.45 15.7102 183.29 15.5502 183.09 15.4402C182.89 15.3302 182.67 15.2502 182.41 15.2102C182.16 15.1702 181.9 15.1502 181.64 15.1502H179.89V18.3102ZM178.56 13.9902H182.01C182.64 13.9902 183.16 14.0802 183.56 14.2502C183.97 14.4202 184.29 14.6402 184.52 14.9002C184.75 15.1602 184.92 15.4602 185.01 15.7902C185.1 16.1202 185.15 16.4302 185.15 16.7402C185.15 17.0502 185.09 17.3602 184.98 17.6502C184.87 17.9402 184.71 18.2002 184.5 18.4402C184.29 18.6802 184.04 18.8702 183.74 19.0402C183.44 19.2002 183.11 19.3002 182.74 19.3402L185.52 23.8202H183.86L181.37 19.5002H179.89V23.8202H178.56V13.9902Z" fill="white"/>
<path d="M197.02 20.2102L195.19 15.7102H195.16L193.3 20.2102H197.02ZM194.64 13.9902H195.85L200.05 23.8002H198.5L197.52 21.3702H192.85L191.88 23.8002H190.33L194.64 13.9902Z" fill="white"/>
<path d="M206.95 22.5502H208.63C209.19 22.5502 209.73 22.4702 210.23 22.3202C210.73 22.1702 211.18 21.9402 211.55 21.6302C211.93 21.3202 212.23 20.9402 212.45 20.4902C212.67 20.0302 212.78 19.5002 212.78 18.8902C212.78 18.5802 212.73 18.2102 212.63 17.7902C212.53 17.3702 212.34 16.9702 212.06 16.5902C211.78 16.2102 211.39 15.8902 210.89 15.6302C210.39 15.3702 209.75 15.2402 208.95 15.2402H206.96V22.5502H206.95ZM205.62 13.9902H209.04C209.73 13.9902 210.34 14.0702 210.86 14.2302C211.38 14.3902 211.84 14.6002 212.22 14.8602C212.6 15.1202 212.92 15.4302 213.18 15.7702C213.43 16.1102 213.64 16.4602 213.78 16.8202C213.93 17.1802 214.03 17.5402 214.1 17.9002C214.16 18.2602 214.2 18.5902 214.2 18.9002C214.2 19.5302 214.09 20.1402 213.85 20.7202C213.62 21.3102 213.28 21.8302 212.82 22.2902C212.37 22.7502 211.81 23.1102 211.14 23.3902C210.47 23.6702 209.7 23.8102 208.82 23.8102H205.62V13.9902Z" fill="white"/>
<path d="M230.39 15.2302H227.23V13.9902H234.88V15.2302H231.72V23.8002H230.39V15.2302Z" fill="white"/>
<path d="M242.15 18.3102H243.9C244.16 18.3102 244.41 18.2902 244.67 18.2502C244.92 18.2102 245.15 18.1302 245.35 18.0202C245.55 17.9102 245.71 17.7502 245.83 17.5402C245.95 17.3302 246.01 17.0602 246.01 16.7302C246.01 16.4002 245.95 16.1302 245.83 15.9202C245.71 15.7102 245.55 15.5502 245.35 15.4402C245.15 15.3302 244.92 15.2502 244.67 15.2102C244.42 15.1702 244.16 15.1502 243.9 15.1502H242.15V18.3102ZM240.82 13.9902H244.27C244.9 13.9902 245.41 14.0802 245.82 14.2502C246.23 14.4202 246.55 14.6402 246.78 14.9002C247.02 15.1602 247.18 15.4602 247.27 15.7902C247.36 16.1202 247.41 16.4302 247.41 16.7402C247.41 17.0502 247.35 17.3602 247.24 17.6502C247.13 17.9402 246.97 18.2002 246.76 18.4402C246.55 18.6802 246.3 18.8702 246 19.0402C245.7 19.2002 245.36 19.3002 245 19.3402L247.79 23.8202H246.13L243.64 19.5002H242.16V23.8202H240.83V13.9902H240.82Z" fill="white"/>
<path d="M253.82 13.9902H255.56L260.97 22.0502H260.99V13.9902H262.32V23.8002H260.63L255.17 15.7302H255.15V23.8002H253.82V13.9902Z" fill="white"/>
<path d="M274.83 20.2102L273 15.7002H272.97L271.11 20.2002H274.83V20.2102ZM272.45 13.9902H273.66L277.86 23.8002H276.31L275.33 21.3702H270.66L269.69 23.8002H268.14L272.45 13.9902Z" fill="white"/>
<path d="M281.67 13.9902H283.21L286.09 21.9702H286.12L289.12 13.9902H290.57L286.7 23.8002H285.46L281.67 13.9902Z" fill="white"/>
<path d="M301.1 20.2102L299.27 15.7102H299.24L297.38 20.2102H301.1ZM298.71 13.9902H299.92L304.12 23.8002H302.57L301.59 21.3702H296.92L295.95 23.8002H294.4L298.71 13.9902Z" fill="white"/>
<path d="M304.09 29.9805H46.07V30.9505H304.09V29.9805Z" fill="white"/>
<path d="M50.6 37.501H51.99V44.231C51.99 46.601 50.13 47.161 48.99 47.161C47.54 47.161 46.48 46.481 46.2 45.101L47.56 44.821C47.72 45.531 48.21 45.961 48.98 45.961C50.36 45.961 50.59 44.881 50.59 43.821V37.501H50.6Z" fill="white"/>
<path d="M57.5 37.501V43.271C57.5 44.441 58.14 45.961 60.08 45.961C62.02 45.961 62.66 44.441 62.66 43.271V37.501H64.05V43.471C64.05 45.651 62.32 47.161 60.07 47.161C57.82 47.161 56.09 45.661 56.09 43.471V37.501H57.5Z" fill="white"/>
<path d="M68.19 37.501H71.77C76.11 37.501 77.17 40.471 77.17 42.211C77.17 44.621 75.21 46.921 71.54 46.921H68.19V37.501ZM69.59 45.731H71.35C73.7 45.731 75.7 44.551 75.7 42.221C75.7 41.021 75.02 38.711 71.68 38.711H69.59V45.731Z" fill="white"/>
<path d="M81.09 37.501H84.7C87.33 37.501 87.99 38.951 87.99 40.131C87.99 41.331 87.02 42.461 85.46 42.621L88.38 46.921H86.64L84.03 42.771H82.48V46.921H81.09V37.501ZM82.48 41.661H84.31C85.41 41.661 86.52 41.421 86.52 40.141C86.52 38.861 85.42 38.621 84.31 38.621H82.48V41.661Z" fill="white"/>
<path d="M91.6 46.131C91.6 45.651 92.04 45.251 92.56 45.251C93.08 45.251 93.52 45.651 93.52 46.131C93.52 46.611 93.08 47.011 92.56 47.011C92.04 47.011 91.6 46.611 91.6 46.131Z" fill="white"/>
<path d="M103.76 37.501H105.15V46.921H103.76V37.501Z" fill="white"/>
<path d="M108.3 37.501H109.91L112.93 45.161H112.96L116.09 37.501H117.61L113.56 46.921H112.25L108.3 37.501Z" fill="white"/>
<path d="M120.76 37.501H122.15V46.921H120.76V37.501Z" fill="white"/>
<path d="M133.86 39.5407C133.28 38.8507 132.32 38.4607 131.38 38.4607C129.07 38.4607 127.55 40.1507 127.55 42.2907C127.55 44.2707 128.99 45.9607 131.38 45.9607C132.56 45.9607 133.46 45.4807 134.06 44.7007L135.24 45.5107C134.93 45.9007 133.7 47.1607 131.35 47.1607C128.09 47.1607 126.07 44.6607 126.07 42.2907C126.07 39.3607 128.26 37.2607 131.43 37.2607C132.78 37.2607 134.2 37.7207 135.03 38.7207L133.86 39.5407Z" fill="white"/>
<path d="M142.05 37.501H143.31L147.71 46.921H146.09L145.06 44.591H140.17L139.15 46.921H137.53L142.05 37.501ZM144.55 43.481L142.63 39.161H142.6L140.65 43.481H144.55Z" fill="white"/>
<path d="M156.91 37.501H158.3V41.411H163.63V37.501H165.02V46.921H163.63V42.611H158.3V46.921H156.91V37.501Z" fill="white"/>
<path d="M168.93 42.2107C168.93 39.4207 171.15 37.2607 174.28 37.2607C177.41 37.2607 179.64 39.4207 179.64 42.2107C179.64 45.0007 177.42 47.1607 174.28 47.1607C171.15 47.1607 168.93 45.0107 168.93 42.2107ZM178.16 42.2107C178.16 40.1507 176.64 38.4607 174.28 38.4607C171.93 38.4607 170.41 40.1507 170.41 42.2107C170.41 44.2707 171.93 45.9607 174.28 45.9607C176.64 45.9707 178.16 44.2807 178.16 42.2107Z" fill="white"/>
<path d="M183.32 37.501H186.9C191.24 37.501 192.3 40.471 192.3 42.211C192.3 44.621 190.34 46.921 186.67 46.921H183.32V37.501ZM184.71 45.731H186.47C188.82 45.731 190.82 44.551 190.82 42.221C190.82 41.021 190.14 38.711 186.8 38.711H184.71V45.731Z" fill="white"/>
<path d="M199.44 37.5005H200.7L205.1 46.9205H203.48L202.45 44.5905H197.56L196.54 46.9205H194.92L199.44 37.5005ZM201.93 43.4805L200.01 39.1605H199.98L198.03 43.4805H201.93ZM200.55 35.0605H202.41L200.25 36.9805H199.05L200.55 35.0605Z" fill="white"/>
<path d="M208.34 37.501H209.73V45.721H214.45V46.921H208.34V37.501Z" fill="white"/>
<path d="M217.15 42.2107C217.15 39.4207 219.37 37.2607 222.51 37.2607C225.64 37.2607 227.86 39.4207 227.86 42.2107C227.86 45.0007 225.64 47.1607 222.51 47.1607C219.37 47.1607 217.15 45.0107 217.15 42.2107ZM226.37 42.2107C226.37 40.1507 224.85 38.4607 222.5 38.4607C220.15 38.4607 218.62 40.1507 218.62 42.2107C218.62 44.2707 220.14 45.9607 222.5 45.9607C224.85 45.9707 226.37 44.2807 226.37 42.2107Z" fill="white"/>
<path d="M230.36 37.501H231.97L234.99 45.161H235.02L238.15 37.501H239.67L235.62 46.921H234.31L230.36 37.501Z" fill="white"/>
<path d="M245.37 37.501H246.63L251.03 46.921H249.41L248.38 44.591H243.49L242.47 46.921H240.85L245.37 37.501ZM247.87 43.481L245.95 39.161H245.92L243.97 43.481H247.87Z" fill="white"/>
<path d="M254.85 48.6802H253.66L254.66 45.4102H256.07L254.85 48.6802Z" fill="white"/>
<path d="M266.17 37.501H269.78C272.41 37.501 273.07 38.951 273.07 40.131C273.07 41.311 272.4 42.761 269.78 42.761H267.56V46.911H266.17V37.501ZM267.57 41.661H269.4C270.5 41.661 271.61 41.421 271.61 40.141C271.61 38.861 270.51 38.621 269.4 38.621H267.57V41.661Z" fill="white"/>
<path d="M276.69 37.501H278.08V41.411H283.41V37.501H284.8V46.921H283.41V42.611H278.08V46.921H276.69V37.501Z" fill="white"/>
<path d="M289.12 37.501H292.7C297.04 37.501 298.1 40.471 298.1 42.211C298.1 44.621 296.14 46.921 292.47 46.921H289.12V37.501ZM290.51 45.731H292.27C294.62 45.731 296.62 44.551 296.62 42.221C296.62 41.021 295.94 38.711 292.6 38.711H290.51V45.731Z" fill="white"/>
<path d="M301.75 46.131C301.75 45.651 302.19 45.251 302.71 45.251C303.23 45.251 303.67 45.651 303.67 46.131C303.67 46.611 303.23 47.011 302.71 47.011C302.19 47.001 301.75 46.611 301.75 46.131Z" fill="white"/>
<path d="M25.68 47.7405C20.05 45.0205 12.01 39.6505 12.01 29.0005C12.01 18.3605 12.52 13.5205 12.52 13.5205H38.85C38.85 13.5205 39.36 18.3605 39.36 29.0005C39.36 39.6505 31.31 45.0205 25.68 47.7405Z" fill="#929497"/>
<mask id="mask0_279_11" style="mask-type:luminance" maskUnits="userSpaceOnUse" x="12" y="13" width="28" height="35">
<path d="M25.68 13.5205H12.51C12.51 13.5205 12 18.3605 12 29.0005C12 39.6405 20.05 45.0205 25.68 47.7305C31.31 45.0205 39.36 39.6405 39.36 29.0005C39.36 18.3605 38.85 13.5205 38.85 13.5205H25.68V13.5205Z" fill="white"/>
</mask>
<g mask="url(#mask0_279_11)">
<path d="M26.88 26.2107C28.4 26.2407 31.38 26.2907 34.02 25.4107C34.02 25.4107 33.95 26.3607 33.95 27.4607C33.95 28.5607 34.02 29.5107 34.02 29.5107C31.59 28.7007 28.59 28.6807 26.88 28.7007V34.5807H24.47V28.7007C22.75 28.6807 19.75 28.7007 17.33 29.5107C17.33 29.5107 17.4 28.5607 17.4 27.4607C17.4 26.3607 17.33 25.4107 17.33 25.4107C19.98 26.3007 22.95 26.2407 24.47 26.2107V22.5207C23.08 22.5107 21.08 22.5707 18.82 23.3307C18.82 23.3307 18.89 22.3807 18.89 21.2807C18.89 20.1807 18.82 19.2307 18.82 19.2307C21.08 19.9907 23.08 20.0507 24.47 20.0407C24.4 17.7007 23.72 14.7607 23.72 14.7607C23.72 14.7607 25.12 14.8707 25.68 14.8707C26.24 14.8707 27.64 14.7607 27.64 14.7607C27.64 14.7607 26.96 17.7107 26.89 20.0407C28.28 20.0507 30.28 19.9807 32.54 19.2307C32.54 19.2307 32.47 20.1807 32.47 21.2807C32.47 22.3807 32.54 23.3307 32.54 23.3307C30.28 22.5707 28.28 22.5107 26.89 22.5207V26.2107" fill="white"/>
</g>
<mask id="mask1_279_11" style="mask-type:luminance" maskUnits="userSpaceOnUse" x="12" y="13" width="28" height="35">
<path d="M25.68 13.5205H12.51C12.51 13.5205 12 18.3605 12 29.0005C12 39.6405 20.05 45.0205 25.68 47.7305C31.31 45.0205 39.36 39.6405 39.36 29.0005C39.36 18.3605 38.85 13.5205 38.85 13.5205H25.68V13.5205Z" fill="white"/>
</mask>
<g mask="url(#mask1_279_11)">
<path fill-rule="evenodd" clip-rule="evenodd" d="M25.43 51.2304L13.78 40.8304C13.78 40.8304 15.27 36.0104 18.18 36.0104C20.49 36.0104 21.34 37.8704 21.34 37.8704C21.34 37.8704 22.86 33.9404 25.69 33.9404C28.52 33.9404 30.04 37.8704 30.04 37.8704C30.04 37.8704 30.88 36.0104 33.2 36.0104C36.11 36.0104 37.6 40.8304 37.6 40.8304L25.43 51.2304Z" fill="#231F20"/>
</g>
</svg>
