<svg xmlns="http://www.w3.org/2000/svg" xmlns:xlink="http://www.w3.org/1999/xlink" width="500" zoomAndPan="magnify" viewBox="0 0 375 374.999991" height="500" preserveAspectRatio="xMidYMid meet" version="1.0"><defs><clipPath id="7c02087318"><path d="M 149 53.113281 L 301 53.113281 L 301 202 L 149 202 Z M 149 53.113281 " clip-rule="nonzero"/></clipPath><clipPath id="c000be025c"><path d="M 44.535156 212 L 327 212 L 327 321 L 44.535156 321 Z M 44.535156 212 " clip-rule="nonzero"/></clipPath></defs><rect x="-37.5" width="450" fill="#ffffff" y="-37.499999" height="449.999989" fill-opacity="1"/><rect x="-37.5" width="450" fill="#ffffff" y="-37.499999" height="449.999989" fill-opacity="1"/><g clip-path="url(#7c02087318)"><path fill="#000000" d="M 269.058594 96.890625 L 278.769531 80.269531 L 279.550781 85.488281 L 264.984375 72.042969 L 269.9375 72.601562 L 256.800781 80.128906 C 255.8125 80.695312 254.636719 80.835938 253.542969 80.523438 L 236.242188 75.558594 C 235.003906 75.203125 233.996094 74.300781 233.507812 73.109375 L 227.726562 59.019531 L 231.628906 61.632812 L 210.882812 61.65625 L 214.765625 59.066406 L 209.136719 72.574219 C 208.652344 73.738281 207.671875 74.625 206.464844 74.988281 L 190.214844 79.882812 C 189.121094 80.210938 187.945312 80.085938 186.949219 79.53125 L 175.800781 73.324219 L 180.941406 72.507812 L 167.644531 86.851562 L 168.023438 81.601562 L 176.859375 94.417969 C 177.75 95.710938 177.847656 97.390625 177.113281 98.777344 L 167.898438 116.1875 C 167.386719 117.160156 166.511719 117.890625 165.464844 118.226562 L 155.296875 121.496094 L 158.21875 117.5 L 158.15625 135.171875 L 155.097656 131.105469 L 169.816406 135.292969 C 170.953125 135.613281 171.902344 136.402344 172.433594 137.460938 L 179.578125 151.753906 C 180.136719 152.871094 180.167969 154.179688 179.667969 155.324219 L 172.203125 172.355469 L 171.300781 167.664062 L 183.308594 179.488281 L 178.410156 178.753906 L 194.210938 170.535156 C 195.328125 169.953125 196.652344 169.902344 197.8125 170.398438 L 214.71875 177.621094 C 215.964844 178.15625 216.878906 179.253906 217.175781 180.574219 L 220.78125 196.648438 L 216.472656 193.367188 L 235.246094 192.480469 L 231.308594 195.878906 L 234.113281 181.5625 C 234.375 180.226562 235.269531 179.097656 236.511719 178.535156 L 249.667969 172.589844 C 250.671875 172.136719 251.816406 172.09375 252.851562 172.472656 L 267.3125 177.769531 L 262.976562 178.65625 L 277.761719 164.746094 L 276.789062 169.5 L 271.949219 158.4375 C 271.535156 157.488281 271.484375 156.421875 271.808594 155.4375 L 277.042969 139.488281 C 277.394531 138.421875 278.152344 137.542969 279.15625 137.039062 L 294.476562 129.351562 L 292.160156 133.308594 L 291.425781 117.539062 L 294.765625 121.464844 L 281.449219 118.660156 C 280.320312 118.421875 279.335938 117.730469 278.730469 116.746094 L 269.5625 101.847656 C 268.34375 99.867188 268.964844 97.273438 270.945312 96.054688 C 272.925781 94.835938 275.519531 95.453125 276.738281 97.433594 L 285.90625 112.332031 L 283.1875 110.417969 L 296.503906 113.222656 C 298.382812 113.617188 299.753906 115.234375 299.84375 117.148438 L 300.574219 132.917969 C 300.652344 134.578125 299.742188 136.128906 298.257812 136.875 L 282.933594 144.566406 L 285.046875 142.113281 L 279.8125 158.0625 L 279.667969 155.0625 L 284.507812 166.125 C 285.222656 167.757812 284.832031 169.660156 283.535156 170.878906 L 268.75 184.789062 C 267.585938 185.882812 265.910156 186.222656 264.414062 185.675781 L 249.953125 180.378906 L 253.140625 180.261719 L 239.984375 186.210938 L 242.382812 183.183594 L 239.574219 197.496094 C 239.203125 199.402344 237.578125 200.804688 235.640625 200.894531 L 216.867188 201.777344 C 214.824219 201.875 213.007812 200.488281 212.558594 198.492188 L 208.953125 182.414062 L 211.410156 185.367188 L 194.5 178.140625 L 198.101562 178.003906 L 182.300781 186.226562 C 180.679688 187.066406 178.699219 186.769531 177.398438 185.488281 L 165.390625 173.664062 C 164.144531 172.441406 163.785156 170.574219 164.488281 168.976562 L 171.949219 151.945312 L 172.039062 155.515625 L 164.898438 141.222656 L 167.511719 143.390625 L 152.792969 139.207031 C 150.976562 138.691406 149.726562 137.03125 149.734375 135.140625 L 149.792969 117.472656 C 149.800781 115.648438 150.980469 114.035156 152.71875 113.476562 L 162.886719 110.210938 L 160.453125 112.25 L 169.664062 94.839844 L 169.921875 99.195312 L 161.085938 86.378906 C 159.96875 84.757812 160.125 82.574219 161.464844 81.128906 L 174.761719 66.785156 C 176.082031 65.359375 178.207031 65.023438 179.902344 65.96875 L 191.046875 72.175781 L 187.78125 71.820312 L 204.03125 66.925781 L 201.359375 69.339844 L 206.988281 55.828125 C 207.640625 54.261719 209.171875 53.238281 210.871094 53.234375 L 231.617188 53.210938 C 233.328125 53.210938 234.871094 54.242188 235.519531 55.824219 L 241.300781 69.914062 L 238.566406 67.464844 L 255.867188 72.425781 L 252.613281 72.820312 L 265.75 65.296875 C 267.34375 64.382812 269.351562 64.609375 270.703125 65.855469 L 285.265625 79.300781 C 286.71875 80.640625 287.042969 82.8125 286.042969 84.515625 L 276.332031 101.140625 C 275.160156 103.148438 272.578125 103.824219 270.570312 102.652344 C 268.5625 101.476562 267.882812 98.898438 269.058594 96.890625 Z M 269.058594 96.890625 " fill-opacity="1" fill-rule="nonzero"/></g><path fill="#000000" d="M 200.9375 116.429688 L 214.957031 132.058594 L 208.914062 132.003906 L 242.960938 95.339844 C 244.449219 93.734375 246.9375 93.589844 248.605469 95.007812 L 263.285156 107.480469 C 264.132812 108.207031 264.652344 109.246094 264.71875 110.359375 C 264.78125 111.472656 264.386719 112.566406 263.625 113.382812 L 215.898438 164.605469 C 215.101562 165.460938 213.96875 165.9375 212.796875 165.90625 C 211.625 165.871094 210.519531 165.339844 209.769531 164.4375 L 183.035156 132.449219 C 181.640625 130.777344 181.800781 128.304688 183.398438 126.828125 L 194.992188 116.105469 C 196.648438 114.570312 199.238281 114.671875 200.769531 116.328125 C 202.304688 117.984375 202.203125 120.574219 200.546875 122.105469 L 188.953125 132.828125 L 189.316406 127.207031 L 216.046875 159.195312 L 209.914062 159.03125 L 257.640625 107.808594 L 257.984375 113.710938 L 243.308594 101.234375 L 248.957031 100.902344 L 214.90625 137.566406 C 214.125 138.410156 213.023438 138.882812 211.875 138.875 C 210.726562 138.863281 209.632812 138.371094 208.863281 137.515625 L 194.847656 121.886719 C 193.339844 120.207031 193.480469 117.621094 195.164062 116.113281 C 196.84375 114.605469 199.429688 114.75 200.9375 116.429688 Z M 200.9375 116.429688 " fill-opacity="1" fill-rule="nonzero"/><g clip-path="url(#c000be025c)"><path fill="#000000" d="M 76.527344 318.914062 C 70.460938 310.96875 45.472656 273.980469 45.53125 274.070312 C 44.84375 273.054688 44.59375 271.804688 44.839844 270.601562 C 45.082031 269.402344 45.796875 268.347656 46.824219 267.675781 C 111.550781 225.390625 117.5 222.113281 117.695312 222.007812 L 119.902344 226.019531 L 117.707031 222 C 127.175781 216.828125 136.601562 213.921875 146.007812 212.628906 C 162.019531 210.429688 187.472656 216.496094 221.550781 231.347656 C 233.058594 236.363281 237.265625 246.882812 235.699219 259.933594 L 228.875 255.414062 C 257.363281 239.117188 280.894531 228.261719 299.25 222.394531 L 299.246094 222.394531 C 310.808594 218.703125 318.621094 224.992188 324.785156 235.703125 C 330.316406 245.324219 324.855469 253.957031 313.339844 260.890625 C 279.574219 281.214844 248.585938 296.5 220.746094 307.117188 C 211.34375 310.699219 202.320312 311.601562 193.945312 311.042969 C 181.292969 310.195312 162.851562 307.058594 138.695312 302.726562 C 132.777344 301.664062 128.40625 302.054688 125.558594 302.351562 C 122.226562 302.699219 118.433594 303.449219 114.308594 305.21875 C 92.363281 314.648438 88.410156 316.71875 82.730469 320.246094 C 80.582031 321.582031 77.757812 320.925781 76.421875 318.777344 C 75.085938 316.628906 75.746094 313.804688 77.894531 312.46875 C 84.226562 308.53125 88.765625 306.222656 110.691406 296.804688 C 115.863281 294.582031 120.597656 293.65625 124.609375 293.242188 C 127.785156 292.910156 133.148438 292.425781 140.3125 293.710938 C 164.636719 298.074219 182.519531 301.097656 194.554688 301.902344 C 201.804688 302.386719 209.484375 301.605469 217.480469 298.558594 C 244.714844 288.171875 275.214844 273.144531 308.613281 253.042969 C 319.035156 246.769531 318.378906 242.941406 316.839844 240.269531 C 311.496094 230.976562 307.390625 229.410156 302.039062 231.121094 C 284.535156 236.714844 261.621094 247.234375 233.425781 263.363281 C 231.921875 264.222656 230.0625 264.160156 228.621094 263.207031 C 227.175781 262.25 226.394531 260.5625 226.601562 258.84375 C 227.835938 248.550781 224.644531 242.691406 217.890625 239.746094 C 183.925781 224.941406 160.539062 219.878906 147.257812 221.703125 C 138.90625 222.851562 130.550781 225.421875 122.101562 230.039062 L 119.902344 226.019531 L 122.109375 230.03125 C 122.304688 229.925781 116.738281 232.945312 51.835938 275.34375 L 53.125 268.945312 C 53.1875 269.035156 77.953125 305.6875 83.8125 313.355469 C 85.347656 315.363281 84.960938 318.238281 82.949219 319.773438 C 80.941406 321.308594 78.0625 320.921875 76.527344 318.914062 Z M 76.527344 318.914062 " fill-opacity="1" fill-rule="nonzero"/></g><path fill="#000000" d="M 85.9375 244.210938 C 85.273438 244.210938 84.601562 244.355469 83.964844 244.664062 C 81.683594 245.753906 80.71875 248.488281 81.363281 248.789062 L 81.363281 248.792969 L 81.8125 250.769531 C 83.914062 255.152344 94.539062 271.570312 113.6875 300.023438 C 114.570312 301.335938 116.019531 302.046875 117.492188 302.046875 C 118.371094 302.046875 119.257812 301.792969 120.042969 301.265625 C 122.140625 299.855469 122.695312 297.011719 121.285156 294.914062 C 103.183594 268.015625 92.875 252.175781 90.359375 247.386719 L 90.203125 247.386719 L 90.074219 246.8125 C 89.285156 245.171875 87.644531 244.210938 85.9375 244.210938 Z M 85.9375 244.210938 " fill-opacity="1" fill-rule="nonzero"/><path fill="#000000" d="M 174.804688 254.480469 C 172.589844 254.480469 170.640625 256.089844 170.285156 258.347656 C 169.894531 260.84375 171.601562 263.1875 174.097656 263.582031 L 185.054688 265.304688 L 185.105469 265.3125 C 190.5625 266.109375 195.132812 266.738281 198.816406 267.199219 C 204.480469 267.914062 208.847656 268.304688 211.910156 268.378906 C 212.992188 268.417969 214.039062 268.4375 215.054688 268.4375 C 218.375 268.4375 221.320312 268.238281 223.890625 267.839844 L 223.941406 267.832031 C 227.003906 267.324219 229.632812 266.183594 231.824219 264.40625 C 233.789062 262.816406 234.09375 259.9375 232.503906 257.96875 C 231.597656 256.855469 230.277344 256.273438 228.941406 256.273438 C 227.929688 256.273438 226.910156 256.605469 226.0625 257.292969 C 225.125 258.054688 223.917969 258.558594 222.441406 258.800781 L 222.4375 258.800781 C 220.339844 259.121094 217.886719 259.28125 215.074219 259.28125 C 214.148438 259.28125 213.183594 259.265625 212.179688 259.230469 L 212.132812 259.226562 C 209.375 259.160156 205.316406 258.789062 199.960938 258.117188 L 199.953125 258.113281 C 196.320312 257.660156 191.828125 257.042969 186.484375 256.261719 L 186.480469 256.261719 L 175.523438 254.539062 C 175.28125 254.5 175.039062 254.480469 174.804688 254.480469 Z M 174.804688 254.480469 " fill-opacity="1" fill-rule="nonzero"/></svg>