<svg width="500" height="500" viewBox="0 0 500 500" fill="none" xmlns="http://www.w3.org/2000/svg">
<mask id="mask0_8239_5494" style="mask-type:luminance" maskUnits="userSpaceOnUse" x="198" y="70" width="204" height="200">
<path d="M198.667 70.8177H401.333V269.333H198.667V70.8177Z" fill="white"/>
</mask>
<g mask="url(#mask0_8239_5494)">
<path d="M358.745 129.187L371.693 107.026L372.735 113.984L353.313 96.0573L359.917 96.802L342.401 106.839C341.084 107.594 339.516 107.781 338.058 107.365L314.99 100.745C313.339 100.271 311.995 99.0677 311.344 97.4791L303.636 78.6927L308.839 82.177L281.177 82.2083L286.354 78.7552L278.849 96.7656C278.203 98.3177 276.896 99.5 275.287 99.9843L253.62 106.51C252.162 106.948 250.594 106.781 249.266 106.042L234.401 97.7656L241.255 96.677L223.526 115.802L224.031 108.802L235.813 125.891C237 127.615 237.13 129.854 236.151 131.703L223.865 154.917C223.183 156.214 222.016 157.187 220.62 157.635L207.063 161.995L210.959 156.667L210.875 180.229L206.797 174.807L226.422 180.391C227.938 180.818 229.203 181.87 229.912 183.281L239.438 202.339C240.183 203.828 240.224 205.573 239.558 207.099L229.604 229.807L228.401 223.552L244.412 239.318L237.88 238.339L258.948 227.38C260.438 226.604 262.203 226.536 263.75 227.198L286.292 236.828C287.953 237.542 289.172 239.005 289.568 240.766L294.375 262.198L288.63 257.823L313.662 256.641L308.412 261.172L312.151 242.083C312.5 240.302 313.693 238.797 315.349 238.047L332.891 230.12C334.229 229.516 335.755 229.458 337.136 229.964L356.417 237.026L350.636 238.208L370.349 219.661L369.052 226L362.599 211.25C362.047 209.984 361.979 208.562 362.412 207.25L369.391 185.984C369.86 184.562 370.87 183.391 372.209 182.719L392.636 172.469L389.547 177.745L388.568 156.719L393.021 161.953L375.266 158.214C373.761 157.896 372.448 156.974 371.641 155.661L359.417 135.797C357.792 133.156 358.62 129.698 361.261 128.073C363.901 126.448 367.36 127.271 368.985 129.911L381.209 149.776L377.584 147.224L395.339 150.964C397.844 151.49 399.672 153.646 399.792 156.198L400.766 177.224C400.87 179.437 399.656 181.505 397.677 182.5L377.245 192.755L380.063 189.484L373.084 210.75L372.891 206.75L379.344 221.5C380.297 223.677 379.776 226.214 378.047 227.839L358.334 246.385C356.781 247.844 354.547 248.297 352.552 247.568L333.271 240.505L337.521 240.349L319.979 248.281L323.177 244.245L319.433 263.328C318.938 265.87 316.771 267.74 314.188 267.859L289.156 269.036C286.433 269.167 284.011 267.318 283.412 264.656L278.604 243.219L281.88 247.156L259.334 237.521L264.136 237.339L243.068 248.302C240.906 249.422 238.266 249.026 236.531 247.318L220.521 231.552C218.86 229.922 218.38 227.432 219.318 225.302L229.266 202.594L229.386 207.354L219.865 188.297L223.349 191.187L203.724 185.609C201.302 184.922 199.636 182.708 199.646 180.187L199.724 156.63C199.735 154.198 201.308 152.047 203.625 151.302L217.183 146.948L213.938 149.667L226.219 126.453L226.563 132.26L214.781 115.172C213.292 113.01 213.5 110.099 215.287 108.172L233.016 89.0468C234.776 87.1458 237.61 86.6979 239.87 87.9583L254.729 96.2343L250.375 95.7604L272.042 89.2343L268.479 92.4531L275.985 74.4375C276.854 72.3489 278.896 70.9843 281.162 70.9791L308.823 70.9479C311.104 70.9479 313.162 72.3229 314.026 74.4323L321.735 93.2187L318.089 89.9531L341.156 96.5677L336.818 97.0937L354.334 87.0625C356.459 85.8437 359.136 86.1458 360.938 87.8073L380.354 105.734C382.292 107.521 382.724 110.417 381.391 112.687L368.443 134.854C366.88 137.531 363.438 138.432 360.761 136.87C358.084 135.302 357.177 131.865 358.745 129.187Z" fill="black"/>
</g>
<path d="M267.917 155.24L286.609 176.078L278.552 176.005L323.948 127.12C325.932 124.979 329.25 124.786 331.474 126.677L351.047 143.307C352.177 144.276 352.87 145.661 352.958 147.146C353.042 148.63 352.516 150.089 351.5 151.177L287.865 219.474C286.802 220.615 285.292 221.25 283.729 221.208C282.167 221.161 280.693 220.453 279.693 219.25L244.047 176.599C242.187 174.37 242.401 171.073 244.531 169.104L259.99 154.807C262.198 152.76 265.651 152.896 267.693 155.104C269.74 157.312 269.604 160.766 267.396 162.807L251.937 177.104L252.422 169.609L288.062 212.26L279.885 212.042L343.521 143.745L343.979 151.615L324.411 134.979L331.943 134.536L286.542 183.422C285.5 184.547 284.031 185.177 282.5 185.167C280.969 185.151 279.51 184.495 278.484 183.354L259.797 162.516C257.786 160.276 257.974 156.828 260.219 154.818C262.458 152.807 265.906 153 267.917 155.24Z" fill="black"/>
<mask id="mask1_8239_5494" style="mask-type:luminance" maskUnits="userSpaceOnUse" x="59" y="282" width="377" height="146">
<path d="M59.3801 282.667H436V428H59.3801V282.667Z" fill="white"/>
</mask>
<g mask="url(#mask1_8239_5494)">
<path d="M102.036 425.219C93.9478 414.625 60.6301 365.307 60.7083 365.427C59.7916 364.073 59.4583 362.406 59.7864 360.802C60.1093 359.203 61.0624 357.797 62.4322 356.901C148.734 300.521 156.667 296.151 156.927 296.01L159.87 301.359L156.943 296C169.568 289.104 182.135 285.229 194.677 283.505C216.026 280.573 249.963 288.661 295.401 308.464C310.745 315.151 316.354 329.177 314.266 346.578L305.167 340.552C343.151 318.823 374.526 304.349 399 296.526H398.995C414.411 291.604 424.828 299.99 433.047 314.271C440.422 327.099 433.141 338.609 417.786 347.854C372.766 374.953 331.448 395.333 294.328 409.49C281.792 414.266 269.76 415.469 258.594 414.724C241.724 413.594 217.135 409.411 184.927 403.635C177.036 402.219 171.208 402.74 167.411 403.135C162.969 403.599 157.911 404.599 152.411 406.958C123.151 419.531 117.88 422.292 110.307 426.995C107.443 428.776 103.677 427.901 101.896 425.036C100.115 422.172 100.995 418.406 103.859 416.625C112.302 411.375 118.354 408.297 147.588 395.74C154.484 392.776 160.797 391.542 166.146 390.99C170.38 390.547 177.531 389.901 187.083 391.615C219.516 397.432 243.359 401.464 259.406 402.536C269.073 403.182 279.312 402.141 289.974 398.078C326.286 384.229 366.953 364.193 411.484 337.391C425.38 329.026 424.505 323.922 422.453 320.359C415.328 307.969 409.854 305.88 402.719 308.161C379.38 315.62 348.828 329.646 311.234 351.151C309.229 352.297 306.75 352.214 304.828 350.943C302.901 349.667 301.859 347.417 302.135 345.125C303.781 331.401 299.526 323.589 290.521 319.661C245.234 299.922 214.052 293.172 196.344 295.604C185.208 297.135 174.068 300.563 162.802 306.719L159.87 301.359L162.812 306.708C163.073 306.568 155.651 310.594 69.1145 367.125L70.8333 358.594C70.9166 358.714 103.937 407.583 111.75 417.807C113.797 420.484 113.281 424.318 110.599 426.365C107.922 428.411 104.083 427.896 102.036 425.219Z" fill="black"/>
</g>
<path d="M114.583 325.615C113.698 325.615 112.802 325.807 111.953 326.219C108.911 327.672 107.625 331.318 108.484 331.719V331.724L109.083 334.359C111.885 340.203 126.052 362.094 151.583 400.031C152.76 401.781 154.693 402.729 156.656 402.729C157.828 402.729 159.01 402.391 160.057 401.688C162.854 399.807 163.594 396.016 161.713 393.219C137.578 357.354 123.833 336.234 120.479 329.849H120.271L120.099 329.083C119.047 326.896 116.859 325.615 114.583 325.615Z" fill="black"/>
<path d="M233.073 339.307C230.12 339.307 227.521 341.453 227.047 344.464C226.526 347.792 228.802 350.917 232.13 351.443L246.74 353.74L246.807 353.75C254.083 354.813 260.177 355.651 265.089 356.266C272.641 357.219 278.464 357.74 282.547 357.839C283.99 357.891 285.385 357.917 286.74 357.917C291.167 357.917 295.094 357.651 298.521 357.12L298.589 357.109C302.672 356.432 306.177 354.911 309.099 352.542C311.719 350.422 312.125 346.583 310.005 343.958C308.797 342.474 307.036 341.698 305.255 341.698C303.906 341.698 302.547 342.141 301.417 343.057C300.167 344.073 298.557 344.745 296.589 345.068H296.583C293.786 345.495 290.516 345.708 286.766 345.708C285.531 345.708 284.245 345.688 282.906 345.641L282.844 345.635C279.167 345.547 273.755 345.052 266.615 344.156L266.604 344.151C261.76 343.547 255.771 342.724 248.646 341.682H248.641L234.031 339.385C233.708 339.333 233.385 339.307 233.073 339.307Z" fill="black"/>
</svg>
